<?xml version="1.0" encoding="UTF-8"?>
<!-- Creator: CorelDRAW -->
<svg width="25mm" height="25mm" clip-rule="evenodd" fill-rule="evenodd" image-rendering="optimizeQuality" shape-rendering="geometricPrecision" text-rendering="geometricPrecision" version="1.1" viewBox="0 0 1.0655 1.0655" xml:space="preserve" xmlns="http://www.w3.org/2000/svg">
 <defs>
  <style type="text/css">
   <![CDATA[
    .str0 {stroke:black;stroke-width:0.00324773}
    .fil2 {fill:black}
    .fil4 {fill:white}
    .fil0 {fill:gray}
    .fil1 {fill:#c6c6c6}
    .fil3 {fill:url(#id0)}
   ]]>
  </style>
  <radialGradient id="id0" cx=".50477" cy=".51183" r=".15459" gradientUnits="userSpaceOnUse">
   <stop stop-color="#fff" offset="0"/>
   <stop stop-color="#E5E5E1" offset=".12941"/>
   <stop stop-color="#CCC8C8" offset=".2902"/>
   <stop stop-color="#B2B4B4" offset=".43922"/>
   <stop stop-color="#464D43" offset=".74902"/>
   <stop offset="1"/>
  </radialGradient>
 <style type="text/css">
   <![CDATA[
    .fil0 {fill:gray}
    .fil1 {fill:#c6c6c6}
   ]]>
  </style><style type="text/css">
   <![CDATA[
    .fil2 {fill:blue}
    .fil0 {fill:gray}
    .fil1 {fill:#c6c6c6}
   ]]>
  </style><style type="text/css">
   <![CDATA[
    .str0 {stroke:#a7a7a7;stroke-width:0.00340562}
    .fil4 {fill:#afafaf}
    .fil0 {fill:#CCCCCC}
    .fil1 {fill:white}
    .fil2 {fill:gray}
    .fil3 {fill:#c6c6c6}
    .fil5 {fill:#b7afaf}
   ]]>
  </style></defs>
 
  
  
  
  
  
  
  
  
  
  
  
  
 <g transform="scale(.95364)" clip-rule="evenodd" fill-rule="evenodd" image-rendering="optimizeQuality" shape-rendering="geometricPrecision" text-rendering="geometricPrecision">
  
  <rect class="fil0" width="1.1173" height="1.1173"/>
  <polygon class="fil1" points="0.72019 0.72019 0 1.1173 0 0 1.1173 0"/>
  <polygon class="fil2" points="1.1173 0 1.1173 1.1173 0 1.1173"/>
  <rect class="fil3" x=".13564" y=".13564" width=".84606" height=".84606"/>
  
  
  
  
 </g><path d="m0.53625 0.22483c-0.056141 5.2636e-4 -0.10381 0.017646-0.14306 0.051376-0.039582 0.034265-0.063952 0.084777-0.073109 0.15154l0.12139 0.01728c0.006498-0.073847 0.035879-0.11076 0.088163-0.11076 0.019791 0 0.036628 0.00634 0.050512 0.019042 0.013884 0.012407 0.020836 0.02955 0.020836 0.051409 0 0.017723-0.003681 0.032652-0.011066 0.044763-0.007384 0.011815-0.020541 0.024665-0.039446 0.038548-0.036037 0.026585-0.058328 0.046967-0.066895 0.061146-0.008271 0.013884-0.012428 0.047694-0.012428 0.10146v0.016848h0.11432c0-0.028653 0.002965-0.048318 0.008873-0.058953 0.006202-0.010634 0.02362-0.025393 0.052273-0.044298 0.065872-0.043127 0.09883-0.096741 0.09883-0.16084 0-0.051693-0.019802-0.094366-0.059384-0.12804-0.039582-0.033674-0.088628-0.050512-0.14712-0.050512-8.9532e-4 0-0.0018-8.34e-6 -0.002693 2.5e-7zm-0.067759 0.48205v0.13382h0.13914v-0.13382z" stroke-width="0"/>
</svg>
